<mxfile host="app.diagrams.net" agent="Mozilla/5.0 (Windows NT 10.0; Win64; x64) AppleWebKit/537.36 (KHTML, like Gecko) Chrome/131.0.0.0 Safari/537.36" version="25.0.3">
  <diagram name="หน้า-1" id="ruXjoK6apoqym0596ZnS">
    <mxGraphModel dx="1050" dy="530" grid="1" gridSize="10" guides="1" tooltips="1" connect="1" arrows="1" fold="1" page="1" pageScale="1" pageWidth="827" pageHeight="1169" math="0" shadow="0">
      <root>
        <mxCell id="0" />
        <mxCell id="1" parent="0" />
        <mxCell id="CCWE4jpJTTz9E-Bhz1g9-4" value="" style="edgeStyle=orthogonalEdgeStyle;rounded=0;orthogonalLoop=1;jettySize=auto;html=1;" edge="1" parent="1" source="CCWE4jpJTTz9E-Bhz1g9-2" target="CCWE4jpJTTz9E-Bhz1g9-3">
          <mxGeometry relative="1" as="geometry" />
        </mxCell>
        <mxCell id="CCWE4jpJTTz9E-Bhz1g9-2" value="Start" style="ellipse;whiteSpace=wrap;html=1;" vertex="1" parent="1">
          <mxGeometry x="354" y="10" width="120" height="80" as="geometry" />
        </mxCell>
        <mxCell id="CCWE4jpJTTz9E-Bhz1g9-6" value="" style="edgeStyle=orthogonalEdgeStyle;rounded=0;orthogonalLoop=1;jettySize=auto;html=1;" edge="1" parent="1" source="CCWE4jpJTTz9E-Bhz1g9-3" target="CCWE4jpJTTz9E-Bhz1g9-5">
          <mxGeometry relative="1" as="geometry" />
        </mxCell>
        <mxCell id="CCWE4jpJTTz9E-Bhz1g9-3" value="Read file" style="whiteSpace=wrap;html=1;" vertex="1" parent="1">
          <mxGeometry x="354" y="180" width="120" height="60" as="geometry" />
        </mxCell>
        <mxCell id="CCWE4jpJTTz9E-Bhz1g9-8" value="" style="edgeStyle=orthogonalEdgeStyle;rounded=0;orthogonalLoop=1;jettySize=auto;html=1;" edge="1" parent="1" source="CCWE4jpJTTz9E-Bhz1g9-5" target="CCWE4jpJTTz9E-Bhz1g9-7">
          <mxGeometry relative="1" as="geometry" />
        </mxCell>
        <mxCell id="CCWE4jpJTTz9E-Bhz1g9-5" value="" style="shape=waypoint;sketch=0;size=6;pointerEvents=1;points=[];fillColor=default;resizable=0;rotatable=0;perimeter=centerPerimeter;snapToPoint=1;" vertex="1" parent="1">
          <mxGeometry x="404" y="340" width="20" height="20" as="geometry" />
        </mxCell>
        <mxCell id="CCWE4jpJTTz9E-Bhz1g9-10" value="F" style="edgeStyle=orthogonalEdgeStyle;rounded=0;orthogonalLoop=1;jettySize=auto;html=1;" edge="1" parent="1" source="CCWE4jpJTTz9E-Bhz1g9-7" target="CCWE4jpJTTz9E-Bhz1g9-9">
          <mxGeometry relative="1" as="geometry" />
        </mxCell>
        <mxCell id="CCWE4jpJTTz9E-Bhz1g9-17" value="T" style="edgeStyle=orthogonalEdgeStyle;rounded=0;orthogonalLoop=1;jettySize=auto;html=1;" edge="1" parent="1" source="CCWE4jpJTTz9E-Bhz1g9-7" target="CCWE4jpJTTz9E-Bhz1g9-16">
          <mxGeometry relative="1" as="geometry" />
        </mxCell>
        <mxCell id="CCWE4jpJTTz9E-Bhz1g9-7" value="All people done" style="rhombus;whiteSpace=wrap;html=1;sketch=0;pointerEvents=1;resizable=0;" vertex="1" parent="1">
          <mxGeometry x="374" y="410" width="80" height="80" as="geometry" />
        </mxCell>
        <mxCell id="CCWE4jpJTTz9E-Bhz1g9-9" value="Output Name Age MonthsAge" style="shape=parallelogram;perimeter=parallelogramPerimeter;whiteSpace=wrap;html=1;fixedSize=1;sketch=0;pointerEvents=1;resizable=0;" vertex="1" parent="1">
          <mxGeometry x="354" y="580" width="120" height="60" as="geometry" />
        </mxCell>
        <mxCell id="CCWE4jpJTTz9E-Bhz1g9-11" style="edgeStyle=orthogonalEdgeStyle;rounded=0;orthogonalLoop=1;jettySize=auto;html=1;exitX=0.5;exitY=1;exitDx=0;exitDy=0;entryX=0.62;entryY=0.78;entryDx=0;entryDy=0;entryPerimeter=0;" edge="1" parent="1" source="CCWE4jpJTTz9E-Bhz1g9-9" target="CCWE4jpJTTz9E-Bhz1g9-5">
          <mxGeometry relative="1" as="geometry">
            <Array as="points">
              <mxPoint x="414" y="660" />
              <mxPoint x="490" y="660" />
              <mxPoint x="490" y="350" />
            </Array>
          </mxGeometry>
        </mxCell>
        <mxCell id="CCWE4jpJTTz9E-Bhz1g9-19" value="" style="edgeStyle=orthogonalEdgeStyle;rounded=0;orthogonalLoop=1;jettySize=auto;html=1;" edge="1" parent="1" source="CCWE4jpJTTz9E-Bhz1g9-16" target="CCWE4jpJTTz9E-Bhz1g9-18">
          <mxGeometry relative="1" as="geometry" />
        </mxCell>
        <mxCell id="CCWE4jpJTTz9E-Bhz1g9-16" value="Output Max Age person info" style="shape=parallelogram;perimeter=parallelogramPerimeter;whiteSpace=wrap;html=1;fixedSize=1;sketch=0;pointerEvents=1;resizable=0;" vertex="1" parent="1">
          <mxGeometry x="194" y="420" width="120" height="60" as="geometry" />
        </mxCell>
        <mxCell id="CCWE4jpJTTz9E-Bhz1g9-21" style="edgeStyle=orthogonalEdgeStyle;rounded=0;orthogonalLoop=1;jettySize=auto;html=1;exitX=0.5;exitY=1;exitDx=0;exitDy=0;entryX=0.5;entryY=0;entryDx=0;entryDy=0;" edge="1" parent="1" source="CCWE4jpJTTz9E-Bhz1g9-18" target="CCWE4jpJTTz9E-Bhz1g9-20">
          <mxGeometry relative="1" as="geometry" />
        </mxCell>
        <mxCell id="CCWE4jpJTTz9E-Bhz1g9-18" value="Output Min Age person info" style="shape=parallelogram;perimeter=parallelogramPerimeter;whiteSpace=wrap;html=1;fixedSize=1;sketch=0;pointerEvents=1;resizable=0;" vertex="1" parent="1">
          <mxGeometry x="194" y="580" width="120" height="60" as="geometry" />
        </mxCell>
        <mxCell id="CCWE4jpJTTz9E-Bhz1g9-20" value="End" style="ellipse;whiteSpace=wrap;html=1;" vertex="1" parent="1">
          <mxGeometry x="354" y="730" width="120" height="80" as="geometry" />
        </mxCell>
      </root>
    </mxGraphModel>
  </diagram>
</mxfile>
